<svg width="24" height="24" viewBox="0 0 24 24" fill="none" xmlns="http://www.w3.org/2000/svg">
<rect width="24" height="24" rx="3" fill="black"/>
<rect x="2" y="2" width="20" height="20" rx="10" fill="white"/>
<path fill-rule="evenodd" clip-rule="evenodd" d="M18 10.0019C18 8.98208 17.6547 8.14799 17.0814 7.4946C17.1734 7.25784 17.4799 6.30746 16.9927 5.0216C16.9927 5.0216 16.2429 4.77062 14.5357 5.97952C13.8222 5.77204 13.0572 5.6683 12.2973 5.66495C11.5374 5.6683 10.7724 5.77204 10.0598 5.97952C8.35171 4.77062 7.60109 5.0216 7.60109 5.0216C7.11391 6.30746 7.42125 7.25784 7.51328 7.4946C6.94082 8.14799 6.59295 8.98208 6.59295 10.0019C6.59295 13.5825 8.68016 14.384 10.6652 14.6199C10.6652 14.6199 9.23827 15.4959 9.23827 16.9683C8.72913 17.2075 6.57437 17.9404 5.77647 16.5123C5.77647 16.5123 5.30448 15.6155 4.40695 15.5494C4.40695 15.5494 3.5339 15.5377 4.34531 16.1174C4.34531 16.1174 4.93129 16.4052 5.33826 17.4845C5.33826 17.4845 5.79082 19.7583 9.20956 18.7369C9.24418 18.7544 9.22223 21.7783 9.22223 22H15.3741C15.3741 22 15.3842 17.886 15.3842 17.195C15.3842 15.4959 14.2393 14.901 13.9176 14.6124C15.9094 14.3815 18 13.5918 18 10.0019Z" fill="black"/>
</svg>
