<svg width="36" height="36" viewBox="0 0 36 36" fill="none" xmlns="http://www.w3.org/2000/svg">
<g clip-path="url(#clip0_52_13)">
<path fill-rule="evenodd" clip-rule="evenodd" d="M4.904 0H31.095C33.804 0 36 2.196 36 4.904V31.095C36 33.804 33.804 36 31.096 36H4.904C2.196 36 0 33.804 0 31.096V4.904C0 2.196 2.196 0 4.904 0Z" fill="url(#paint0_radial_52_13)"/>
<path fill-rule="evenodd" clip-rule="evenodd" d="M4.904 0H31.095C33.804 0 36 2.196 36 4.904V31.095C36 33.804 33.804 36 31.096 36H4.904C2.196 36 0 33.804 0 31.096V4.904C0 2.196 2.196 0 4.904 0Z" fill="url(#paint1_radial_52_13)"/>
<path fill-rule="evenodd" clip-rule="evenodd" d="M4.904 0H31.095C33.804 0 36 2.196 36 4.904V31.095C36 33.804 33.804 36 31.096 36H4.904C2.196 36 0 33.804 0 31.096V4.904C0 2.196 2.196 0 4.904 0Z" fill="url(#paint2_radial_52_13)"/>
<path fill-rule="evenodd" clip-rule="evenodd" d="M4.904 0H31.095C33.804 0 36 2.196 36 4.904V31.095C36 33.804 33.804 36 31.096 36H4.904C2.196 36 0 33.804 0 31.096V4.904C0 2.196 2.196 0 4.904 0Z" fill="url(#paint3_radial_52_13)"/>
<path d="M18.0073 4.62247C14.3721 4.62247 13.9159 4.63835 12.4882 4.70328C11.0632 4.76848 10.0906 4.99391 9.23951 5.32468C8.35917 5.66629 7.61239 6.12327 6.86841 6.86698C6.12387 7.61043 5.66654 8.35664 5.32355 9.23605C4.9917 10.0868 4.76583 11.059 4.7017 12.4823C4.63784 13.909 4.62111 14.3651 4.62111 17.9976C4.62111 21.6301 4.63729 22.0845 4.70197 23.5112C4.76751 24.9351 4.99311 25.907 5.32382 26.7575C5.66598 27.6372 6.1233 28.3834 6.86756 29.1268C7.61128 29.8708 8.35805 30.3289 9.23784 30.6705C10.0895 31.0013 11.0624 31.2267 12.4871 31.2919C13.9148 31.3568 14.3707 31.3727 18.0056 31.3727C21.6411 31.3727 22.0959 31.3568 23.5236 31.2919C24.9486 31.2267 25.9223 31.0013 26.7739 30.6705C27.654 30.3289 28.3997 29.8708 29.1434 29.1268C29.8879 28.3834 30.3453 27.6372 30.6883 26.7578C31.0173 25.907 31.2432 24.9348 31.3101 23.5115C31.3742 22.0848 31.391 21.6301 31.391 17.9976C31.391 14.3651 31.3742 13.9093 31.3101 12.4826C31.2432 11.0587 31.0173 10.0868 30.6883 9.23634C30.3453 8.35664 29.8879 7.61041 29.1434 6.86698C28.3988 6.12299 27.6543 5.666 26.7731 5.32466C25.9198 4.99391 24.9466 4.76848 23.5217 4.70328C22.0939 4.63835 21.6394 4.62247 18.0031 4.62247H18.0073ZM16.8065 7.03278C17.1629 7.03223 17.5606 7.03278 18.0073 7.03278C21.5811 7.03278 22.0047 7.0456 23.416 7.10969C24.721 7.16932 25.4293 7.38721 25.9011 7.57029C26.5258 7.81271 26.9711 8.10251 27.4393 8.57064C27.9078 9.03877 28.1978 9.48461 28.441 10.1088C28.6242 10.5797 28.8425 11.2875 28.9019 12.5915C28.966 14.0015 28.98 14.425 28.98 17.9945C28.98 21.564 28.966 21.9876 28.9019 23.3975C28.8422 24.7016 28.6242 25.4094 28.441 25.8803C28.1984 26.5045 27.9078 26.9489 27.4393 27.4168C26.9708 27.8849 26.526 28.1747 25.9011 28.4171C25.4299 28.601 24.721 28.8184 23.416 28.878C22.005 28.9421 21.5811 28.956 18.0073 28.956C14.4332 28.956 14.0096 28.9421 12.5986 28.878C11.2936 28.8178 10.5853 28.5999 10.1132 28.4168C9.48853 28.1744 9.04235 27.8846 8.57389 27.4165C8.10541 26.9484 7.81541 26.5036 7.57223 25.8792C7.38903 25.4083 7.17069 24.7005 7.11129 23.3964C7.04715 21.9864 7.03432 21.5629 7.03432 17.9912C7.03432 14.4195 7.04715 13.9981 7.11129 12.5882C7.17097 11.2841 7.38903 10.5764 7.57223 10.1049C7.81483 9.48071 8.10541 9.03487 8.57389 8.56674C9.04235 8.09861 9.48853 7.80882 10.1132 7.56584C10.585 7.38192 11.2936 7.16459 12.5986 7.10467C13.8334 7.04893 14.3119 7.03223 16.8065 7.02942L16.8065 7.03278ZM25.1521 9.2536C24.2654 9.2536 23.5459 9.97169 23.5459 10.8581C23.5459 11.7442 24.2654 12.4631 25.1521 12.4631C26.0389 12.4631 26.7583 11.7442 26.7583 10.8581C26.7583 9.97196 26.0389 9.25306 25.1521 9.25306L25.1521 9.2536ZM18.0073 11.1289C14.2112 11.1289 11.1335 14.2044 11.1335 17.9976C11.1335 21.7908 14.2112 24.8649 18.0073 24.8649C21.8034 24.8649 24.88 21.7908 24.88 17.9976C24.88 14.2044 21.8031 11.1289 18.007 11.1289H18.0073ZM18.0073 13.5392C20.4713 13.5392 22.469 15.5352 22.469 17.9976C22.469 20.4597 20.4713 22.456 18.0073 22.456C15.5431 22.456 13.5456 20.4597 13.5456 17.9976C13.5456 15.5352 15.5431 13.5392 18.0073 13.5392Z" fill="white"/>
</g>
<defs>
<radialGradient id="paint0_radial_52_13" cx="0" cy="0" r="1" gradientTransform="matrix(-22.1384 6.24354 -4.49824 -15.9496 34.8376 16.8736)" gradientUnits="userSpaceOnUse">
<stop stop-color="#FF005F"/>
<stop offset="1" stop-color="#FC01D8"/>
</radialGradient>
<radialGradient id="paint1_radial_52_13" cx="0" cy="0" r="1" gradientUnits="userSpaceOnUse" gradientTransform="translate(9.56222 38.7727) rotate(-90) scale(28.7359 30.4882)">
<stop stop-color="#FFCC00"/>
<stop offset="0.1242" stop-color="#FFCC00"/>
<stop offset="0.5672" stop-color="#FE4A05"/>
<stop offset="0.6942" stop-color="#FF0F3F"/>
<stop offset="1" stop-color="#FE0657" stop-opacity="0"/>
</radialGradient>
<radialGradient id="paint2_radial_52_13" cx="0" cy="0" r="1" gradientTransform="matrix(5.96455 -10.2771 13.3796 7.7652 18.9097 35.4923)" gradientUnits="userSpaceOnUse">
<stop stop-color="#FFCC00"/>
<stop offset="1" stop-color="#FFCC00" stop-opacity="0"/>
</radialGradient>
<radialGradient id="paint3_radial_52_13" cx="0" cy="0" r="1" gradientTransform="matrix(-21.8953 6.16536 -2.1 -7.45988 4.88443 1.46591)" gradientUnits="userSpaceOnUse">
<stop stop-color="#7400B8"/>
<stop offset="1" stop-color="#820BFF" stop-opacity="0"/>
</radialGradient>
<clipPath id="clip0_52_13">
<rect width="36" height="36" fill="white"/>
</clipPath>
</defs>
</svg>
