<svg width="25" height="25" viewBox="0 0 25 25" fill="none" xmlns="http://www.w3.org/2000/svg">
<rect x="1" width="24" height="24" rx="3" fill="#018F99"/>
<path d="M16.5562 13.9062L16.1007 14.359C16.1007 14.359 15.0181 15.4355 12.0631 12.4972C9.10812 9.55901 10.1907 8.48257 10.1907 8.48257L10.4775 8.19738C11.1841 7.49484 11.2507 6.36691 10.6342 5.54348L9.37326 3.85908C8.61028 2.83992 7.13596 2.70529 6.26145 3.57483L4.69185 5.13552C4.25823 5.56668 3.96765 6.12559 4.00289 6.74561C4.09304 8.33182 4.81071 11.7447 8.81536 15.7266C13.0621 19.9492 17.0468 20.117 18.6763 19.9651C19.1917 19.9171 19.6399 19.6546 20.0011 19.2954L21.4217 17.883C22.3806 16.9295 22.1102 15.2949 20.8833 14.628L18.9728 13.5894C18.1672 13.1515 17.1858 13.2801 16.5562 13.9062Z" fill="white"/>
</svg>
