<svg width="36" height="36" viewBox="0 0 36 36" fill="none" xmlns="http://www.w3.org/2000/svg">
<rect width="36" height="36" rx="3" fill="#FFFC00"/>
<path d="M29.107 7.63708C27.0356 6.66791 24.8208 5.96356 22.5052 5.5625C22.2208 6.07665 21.8886 6.76819 21.6595 7.3183C19.198 6.94812 16.7591 6.94812 14.3429 7.3183C14.1139 6.76819 13.7741 6.07665 13.4871 5.5625C11.1691 5.96356 8.95167 6.6705 6.88026 7.64221C2.70219 13.9558 1.56959 20.1126 2.13589 26.182C4.907 28.2514 7.59255 29.5085 10.2328 30.3311C10.8847 29.4339 11.466 28.4802 11.9669 27.475C11.013 27.1126 10.0994 26.6653 9.2361 26.146C9.46512 25.9763 9.68914 25.7989 9.90557 25.6164C15.1709 28.0791 20.8919 28.0791 26.0943 25.6164C26.3133 25.7989 26.5373 25.9763 26.7638 26.146C25.898 26.6678 24.9818 27.1151 24.0279 27.4776C24.5288 28.4802 25.1077 29.4365 25.7621 30.3336C28.4048 29.511 31.0929 28.254 33.864 26.182C34.5285 19.146 32.7289 13.0458 29.107 7.63708ZM12.6842 22.4494C11.1036 22.4494 9.8074 20.9738 9.8074 19.1769C9.8074 17.38 11.0759 15.9018 12.6842 15.9018C14.2926 15.9018 15.5887 17.3774 15.5611 19.1769C15.5636 20.9738 14.2926 22.4494 12.6842 22.4494ZM23.3157 22.4494C21.735 22.4494 20.4388 20.9738 20.4388 19.1769C20.4388 17.38 21.7073 15.9018 23.3157 15.9018C24.9239 15.9018 26.2202 17.3774 26.1925 19.1769C26.1925 20.9738 24.9239 22.4494 23.3157 22.4494Z" fill="white"/>
<g clip-path="url(#clip0_52_2)">
<path d="M0.0139923 26.8434V26.845C0.0355378 27.6442 0.0421835 28.4479 0.176983 29.2422C0.319827 30.0825 0.52402 30.9018 0.913588 31.6644C1.44026 32.6967 2.16358 33.5684 3.07661 34.2804C3.73214 34.7917 4.44825 35.1976 5.24095 35.4536C6.39686 35.8264 7.58935 35.9693 8.79925 35.9763C9.55412 35.9811 10.3085 36 11.0636 35.9968C16.5476 35.9738 22.0317 36.0364 27.5158 35.963C28.2435 35.9531 28.9594 35.8644 29.6736 35.7338C31.0425 35.4832 32.2523 34.8991 33.2874 33.9756C34.4938 32.8997 35.3077 31.5829 35.6751 29.9936C35.9155 28.9548 35.9757 27.9009 35.9859 26.8433V26.6323C35.9859 26.5505 35.9548 8.66193 35.9519 8.42549C35.9439 7.77597 35.8961 7.13135 35.7743 6.49226C35.6262 5.71348 35.4169 4.95463 35.044 4.25006C34.6503 3.50569 34.157 2.83638 33.547 2.2515C32.6125 1.3554 31.5341 0.721698 30.2786 0.386483C29.1447 0.0837962 27.9879 0.0167812 26.8226 0.0178305C26.8207 0.0175507 26.8163 0.00572852 26.816 -7.62939e-06H9.17833C9.17798 0.00600833 9.17777 0.0120244 9.17735 0.0178305C8.51601 0.0299323 7.8537 0.0249655 7.19572 0.106531C6.47492 0.196141 5.76105 0.33108 5.0788 0.583051C4.00418 0.980524 3.07052 1.59961 2.27299 2.4261C1.3694 3.36249 0.73248 4.44544 0.394537 5.70648C0.0930394 6.83161 0.0274237 7.97911 0.0258148 9.13474" fill="#FFFC00"/>
<path d="M18.1632 30.3737C18.0885 30.3737 18.0172 30.371 17.963 30.3684C17.9199 30.3721 17.8755 30.3737 17.831 30.3737C16.2615 30.3737 15.2121 29.6318 14.2859 28.9766C13.6222 28.5077 12.9962 28.065 12.2628 27.943C11.9026 27.8833 11.5443 27.853 11.1981 27.853C10.5743 27.853 10.0813 27.9497 9.72144 28.0201C9.49997 28.0633 9.309 28.1004 9.1614 28.1004C9.0068 28.1004 8.81898 28.0661 8.7407 27.7988C8.67865 27.588 8.63416 27.3837 8.59121 27.187C8.48376 26.6955 8.40583 26.3954 8.22179 26.367C6.25324 26.0632 5.09013 25.6158 4.85845 25.074C4.83417 25.017 4.8206 24.9597 4.81759 24.9031C4.80857 24.7415 4.92259 24.5999 5.08181 24.5735C6.64512 24.3161 8.03515 23.4898 9.21351 22.1168C10.1263 21.0539 10.5746 20.0383 10.6227 19.9262C10.6248 19.9212 10.6273 19.9158 10.6298 19.911C10.8569 19.4502 10.9021 19.0519 10.7645 18.7277C10.5109 18.1295 9.67079 17.863 9.11502 17.6866C8.97679 17.6429 8.84605 17.6015 8.74189 17.5602C8.24921 17.3656 7.43894 16.9544 7.54688 16.3868C7.62551 15.973 8.17289 15.6848 8.61527 15.6848C8.73811 15.6848 8.84696 15.7063 8.9386 15.7494C9.43848 15.9836 9.88821 16.1023 10.275 16.1023C10.756 16.1023 10.9883 15.9191 11.0445 15.8671C11.0306 15.6105 11.0137 15.3392 10.9973 15.0826C10.9973 15.0824 10.997 15.0793 10.997 15.0793C10.8841 13.2832 10.7432 11.0481 11.315 9.76635C13.0262 5.92964 16.6551 5.63129 17.7262 5.63129C17.7548 5.63129 18.1931 5.62695 18.1931 5.62695C18.2129 5.6266 18.2344 5.62632 18.2566 5.62632C19.3307 5.62632 22.9672 5.92502 24.6794 9.76404C25.2512 11.0466 25.1102 13.2837 24.9969 15.0816L24.9916 15.1676C24.9761 15.4118 24.9618 15.6428 24.9497 15.8668C25.0025 15.9155 25.2151 16.0834 25.6476 16.1004C26.0164 16.0863 26.4401 15.9681 26.9067 15.7496C27.0509 15.6819 27.2106 15.6679 27.319 15.6679C27.4829 15.6679 27.6497 15.6998 27.7887 15.7578L27.7961 15.7606C28.192 15.9012 28.4514 16.182 28.457 16.4771C28.4619 16.7521 28.2575 17.1633 27.2522 17.5603C27.1492 17.6011 27.0178 17.6428 26.879 17.6868C26.3228 17.8633 25.4834 18.1297 25.2297 18.7275C25.0919 19.0518 25.1373 19.4499 25.3645 19.9106C25.367 19.9156 25.3692 19.9207 25.3716 19.9261C25.4416 20.09 27.1348 23.9508 30.9125 24.5732C31.0717 24.5997 31.1859 24.7415 31.1768 24.9027C31.1734 24.9606 31.1595 25.0186 31.135 25.0752C30.9049 25.614 29.7419 26.0608 27.7727 26.3649C27.5879 26.3935 27.5101 26.6922 27.4036 27.1812C27.3595 27.3831 27.3147 27.5811 27.2535 27.7891C27.1962 27.9848 27.0687 28.0804 26.8641 28.0804H26.8332C26.7 28.0804 26.5111 28.0562 26.273 28.0096C25.8568 27.9286 25.39 27.8532 24.7964 27.8532C24.4503 27.8532 24.092 27.8836 23.7314 27.9432C22.9988 28.0652 22.3729 28.5072 21.7103 28.9756C20.7823 29.6317 19.7326 30.3737 18.1632 30.3737Z" fill="white"/>
<path d="M18.2565 5.94244C19.2677 5.94244 22.7497 6.21407 24.3906 9.89283C24.9309 11.1042 24.7924 13.2986 24.6813 15.0613C24.664 15.341 24.6468 15.6122 24.6328 15.8711L24.6269 15.9824L24.7012 16.0653C24.7312 16.0986 25.0121 16.3921 25.6367 16.4162L25.6468 16.4168L25.6573 16.4166C26.0703 16.4008 26.5355 16.2725 27.0407 16.0359C27.1151 16.0011 27.2142 15.9841 27.319 15.9841C27.4384 15.9841 27.5653 16.0065 27.6699 16.0506L27.6857 16.0569C27.9506 16.1497 28.1379 16.3247 28.1408 16.4831C28.1423 16.5726 28.0754 16.8952 27.1363 17.2662C27.0445 17.3024 26.9237 17.3409 26.7837 17.3851C26.1726 17.5791 25.2493 17.872 24.9386 18.6042C24.7637 19.0166 24.8116 19.5033 25.0809 20.0506C25.1917 20.3093 26.936 24.2384 30.8612 24.8852C30.8604 24.9038 30.8557 24.9241 30.8452 24.9481C30.7786 25.1048 30.3558 25.6462 27.7244 26.0522C27.3127 26.1153 27.2118 26.5768 27.0948 27.1134C27.0526 27.3055 27.0096 27.4994 26.9506 27.6997C26.9325 27.7602 26.9292 27.7636 26.8643 27.7636C26.8554 27.7636 26.8449 27.7636 26.8334 27.7636C26.7167 27.7636 26.5396 27.7394 26.3343 27.6991C25.9604 27.6263 25.4496 27.5369 24.7966 27.5369C24.4321 27.5369 24.0567 27.5686 23.68 27.6315C22.8748 27.7654 22.2199 28.2286 21.5264 28.7188C20.5951 29.3769 19.6325 30.0579 18.1637 30.0579C18.0996 30.0579 18.037 30.0557 17.9742 30.0526L17.9577 30.0519L17.9411 30.0532C17.9051 30.0563 17.8688 30.0579 17.8317 30.0579C16.3632 30.0579 15.4002 29.3771 14.4692 28.7188C13.7756 28.2286 13.1204 27.7654 12.3153 27.6315C11.9389 27.5688 11.5632 27.5369 11.1989 27.5369C10.546 27.5369 10.0346 27.6368 9.66149 27.7098C9.45618 27.75 9.27843 27.7844 9.16209 27.7844C9.06682 27.7844 9.065 27.7788 9.04485 27.7099C8.98581 27.5095 8.94265 27.311 8.90061 27.1192C8.78337 26.5821 8.68243 26.118 8.27089 26.0548C5.63975 25.6485 5.21681 25.1062 5.15008 24.9499C5.13965 24.9253 5.13497 24.9043 5.13392 24.8857C9.05898 24.2395 10.803 20.3102 10.9141 20.0506C11.1839 19.5037 11.2318 19.0171 11.0563 18.6042C10.7456 17.8724 9.82245 17.5791 9.21176 17.3854C9.07136 17.341 8.95049 17.3024 8.85864 17.2662C8.06565 16.9528 7.82172 16.6372 7.85796 16.446C7.9 16.2254 8.28237 16.0011 8.61604 16.0011C8.69103 16.0011 8.75679 16.0132 8.8054 16.036C9.34733 16.29 9.84204 16.4187 10.276 16.4187C10.9581 16.4187 11.2617 16.1014 11.2943 16.0651L11.3682 15.9825L11.3623 15.8717C11.3485 15.613 11.3315 15.3419 11.3136 15.0627C11.2028 13.2995 11.0643 11.1067 11.6044 9.89521C13.2392 6.22995 16.7042 5.94741 17.7271 5.94741C17.7523 5.94741 18.1969 5.94286 18.1969 5.94286C18.2151 5.94272 18.2354 5.94244 18.2565 5.94244ZM18.2565 5.3102H18.2554C18.2321 5.3102 18.2102 5.3102 18.1893 5.31048C18.0231 5.31216 17.7499 5.31482 17.7253 5.3151C17.1261 5.3151 15.9272 5.39974 14.6393 5.96818C13.903 6.29297 13.2407 6.73214 12.6709 7.27351C11.9915 7.91854 11.438 8.71384 11.0261 9.63764C10.4229 10.9903 10.5661 13.2686 10.6811 15.0994L10.6815 15.1023C10.6939 15.2984 10.7068 15.5031 10.7186 15.7026C10.6301 15.7433 10.4867 15.7862 10.2752 15.7862C9.93493 15.7862 9.53033 15.6774 9.0729 15.463C8.93831 15.4004 8.7847 15.3687 8.6152 15.3687C8.34287 15.3687 8.05579 15.4488 7.80675 15.5953C7.49343 15.7792 7.29099 16.0393 7.23601 16.3275C7.19977 16.5182 7.20152 16.8951 7.62019 17.2774C7.85048 17.4878 8.18877 17.6818 8.62541 17.8544C8.74 17.8995 8.87599 17.9426 9.02002 17.9883C9.51983 18.1471 10.2763 18.3872 10.4736 18.8514C10.5735 19.0868 10.5305 19.3966 10.346 19.771C10.3412 19.7812 10.3364 19.7912 10.332 19.8017C10.2859 19.9093 9.85582 20.8835 8.97364 21.9109C8.47236 22.4951 7.92022 22.9834 7.33345 23.3626C6.61727 23.8254 5.84233 24.1281 5.03039 24.2618C4.71154 24.3141 4.48384 24.5982 4.50161 24.921C4.50707 25.0141 4.52889 25.1068 4.56674 25.1966C4.56702 25.1972 4.56737 25.1977 4.56765 25.1982C4.69657 25.4998 4.99548 25.7559 5.48145 25.9819C6.07528 26.2577 6.9634 26.4897 8.12091 26.6713C8.17939 26.7825 8.24011 27.062 8.28215 27.2534C8.32615 27.4568 8.37204 27.666 8.43745 27.8882C8.50803 28.1289 8.6911 28.4165 9.16139 28.4165C9.33963 28.4165 9.5446 28.3764 9.78195 28.3304C10.1295 28.2621 10.6049 28.1691 11.1981 28.1691C11.5271 28.1691 11.8679 28.1981 12.2111 28.2551C12.8725 28.3652 13.4427 28.768 14.1024 29.2344C15.068 29.917 16.161 30.6897 17.831 30.6897C17.8766 30.6897 17.9222 30.6882 17.9674 30.685C18.0226 30.6876 18.091 30.6897 18.1632 30.6897C19.8336 30.6897 20.9264 29.9167 21.891 29.2347L21.8925 29.2333C22.5524 28.7674 23.1219 28.3652 23.7831 28.2551C24.1261 28.1981 24.4669 28.1691 24.796 28.1691C25.3627 28.1691 25.8115 28.2414 26.2122 28.3195C26.4737 28.371 26.6769 28.3958 26.8328 28.3958L26.848 28.396H26.8639C27.2078 28.396 27.4606 28.2072 27.557 27.8768C27.6211 27.6594 27.6668 27.4551 27.712 27.2482C27.7513 27.0689 27.8141 26.7814 27.8726 26.669C29.0309 26.4871 29.9186 26.2555 30.5125 25.9798C30.9974 25.7549 31.2959 25.499 31.4256 25.1987C31.4645 25.1087 31.4873 25.0153 31.4924 24.9203C31.5106 24.5981 31.2826 24.3134 30.9635 24.2611C27.355 23.6664 25.7294 19.9586 25.6621 19.801C25.6578 19.7907 25.6529 19.7804 25.6478 19.7704C25.4633 19.3959 25.4207 19.0865 25.5208 18.8507C25.7176 18.3868 26.4736 18.1468 26.9737 17.988C27.1185 17.9424 27.255 17.899 27.3687 17.8541C27.8611 17.6596 28.213 17.4487 28.4452 17.2091C28.7225 16.9235 28.7765 16.6498 28.7732 16.4707C28.7647 16.0374 28.4335 15.6524 27.9066 15.4639C27.7286 15.3903 27.5257 15.3515 27.319 15.3515C27.1784 15.3515 26.97 15.3708 26.7728 15.4628C26.3507 15.6604 25.9725 15.7684 25.6479 15.7838C25.4752 15.775 25.3541 15.7376 25.2757 15.7019C25.2856 15.5329 25.2965 15.3592 25.3077 15.1782L25.3124 15.1007C25.4281 13.2686 25.5717 10.9886 24.9683 9.63498C24.5546 8.70789 23.9992 7.91057 23.3171 7.26413C22.745 6.72242 22.0805 6.28332 21.3415 5.95874C20.0555 5.3945 18.8566 5.3102 18.2565 5.3102Z" fill="#020202"/>
</g>
<defs>
<clipPath id="clip0_52_2">
<rect width="36" height="36" fill="white"/>
</clipPath>
</defs>
</svg>
