<svg width="48" height="46" viewBox="0 0 48 46" fill="none" xmlns="http://www.w3.org/2000/svg">
<path d="M17.5936 27.1908C17.1788 27.1908 15.1453 27.1075 13.5323 25.5458C12.2123 24.2679 11.5434 22.3973 11.5434 19.9867C11.5434 17.576 12.2128 15.7059 13.5323 14.4276C15.2053 12.8075 17.3311 12.7778 17.6334 12.783H33.3281C33.9755 12.783 34.5 13.3099 34.5 13.9601C34.5 14.6103 33.9755 15.1372 33.3281 15.1372H17.5842V15.1367C17.4797 15.1367 16.1386 15.1574 15.1388 16.1428C14.3086 16.9611 13.8872 18.2545 13.8872 19.9867C13.8872 21.7189 14.3081 23.0122 15.1388 23.8305C16.1386 24.816 17.4797 24.8367 17.5842 24.8367H17.5856L17.6123 24.8353L17.6236 24.8362H27.0942C27.7416 24.8362 28.2661 25.3631 28.2661 26.0133C28.2661 26.6635 27.7416 27.1904 27.0942 27.1904H17.6334C17.6227 27.1904 17.6091 27.1904 17.5936 27.1904V27.1908Z" fill="white"/>
<path d="M33.3886 15.1362C33.1266 15.1362 32.8631 15.0486 32.6447 14.8683L25.4958 8.9627C24.9961 8.54978 24.9239 7.80823 25.335 7.30585C25.7461 6.80395 26.4844 6.73144 26.9845 7.14436L34.1334 13.05C34.6331 13.4629 34.7053 14.2044 34.2942 14.7068C34.0627 14.9898 33.727 15.1362 33.3886 15.1362Z" fill="white"/>
<path d="M17.5936 27.1908C17.1788 27.1908 15.1453 27.1075 13.5323 25.5458C12.2123 24.2679 11.5434 22.3973 11.5434 19.9867C11.5434 17.576 12.2128 15.7059 13.5323 14.4276C15.2053 12.8075 17.3311 12.7778 17.6334 12.783H33.3281C33.9755 12.783 34.5 13.3099 34.5 13.9601C34.5 14.6103 33.9755 15.1372 33.3281 15.1372H17.5842V15.1367C17.4797 15.1367 16.1386 15.1574 15.1388 16.1428C14.3086 16.9611 13.8872 18.2545 13.8872 19.9867C13.8872 21.7189 14.3081 23.0122 15.1388 23.8305C16.1386 24.816 17.4797 24.8367 17.5842 24.8367H17.5856L17.6123 24.8353L17.6236 24.8362H27.0942C27.7416 24.8362 28.2661 25.3631 28.2661 26.0133C28.2661 26.6635 27.7416 27.1904 27.0942 27.1904H17.6334C17.6227 27.1904 17.6091 27.1904 17.5936 27.1904V27.1908Z" fill="white"/>
<path d="M33.3886 15.1362C33.1266 15.1362 32.8631 15.0486 32.6447 14.8683L25.4958 8.9627C24.9961 8.54978 24.9239 7.80823 25.335 7.30585C25.7461 6.80395 26.4844 6.73144 26.9845 7.14436L34.1334 13.05C34.6331 13.4629 34.7053 14.2044 34.2942 14.7068C34.0627 14.9898 33.727 15.1362 33.3886 15.1362Z" fill="white"/>
<path d="M30.4064 33.2175C30.3909 33.2175 30.3778 33.2175 30.3666 33.2175H14.6719C14.0245 33.2175 13.5 32.6906 13.5 32.0404C13.5 31.3902 14.0245 30.8633 14.6719 30.8633H30.4158V30.8638C30.5203 30.8638 31.8614 30.8431 32.8612 29.8576C33.6914 29.0393 34.1128 27.746 34.1128 26.0138C34.1128 24.2816 33.6848 22.967 32.8411 22.1497C31.8 21.1416 30.4341 21.1633 30.4195 21.1633L30.3769 21.1642H20.9062C20.2589 21.1642 19.7344 20.6374 19.7344 19.9872C19.7344 19.3369 20.2589 18.8101 20.9062 18.8101H30.367C30.668 18.8054 32.7947 18.8346 34.4681 20.4547C35.7881 21.7325 36.457 23.6031 36.457 26.0138C36.457 28.4244 35.7877 30.2946 34.4681 31.5729C32.8556 33.1346 30.8217 33.2179 30.4069 33.2179L30.4064 33.2175Z" fill="white"/>
<path d="M21.7589 39.1231C21.4969 39.1231 21.2334 39.035 21.015 38.8552L13.8661 32.9496C13.3664 32.5366 13.2942 31.7951 13.7053 31.2927C14.1164 30.7908 14.8552 30.7183 15.3548 31.1312L22.5037 37.0368C23.0034 37.4497 23.0756 38.1913 22.6645 38.6937C22.433 38.9766 22.0973 39.1231 21.7589 39.1231Z" fill="white"/>
</svg>
