<svg width="24" height="24" viewBox="0 0 24 24" fill="none" xmlns="http://www.w3.org/2000/svg">
<g clip-path="url(#clip0_23_11)">
<path fill-rule="evenodd" clip-rule="evenodd" d="M3.26933 0H20.73C22.536 0 24 1.464 24 3.26933V20.73C24 22.536 22.536 24 20.7307 24H3.26933C1.464 24 0 22.536 0 20.7307V3.26933C0 1.464 1.464 0 3.26933 0Z" fill="black"/>
<path fill-rule="evenodd" clip-rule="evenodd" d="M15.472 9.738C16.5227 10.4887 17.81 10.93 19.2 10.93V8.25601C18.9367 8.25601 18.6747 8.22867 18.4173 8.174V10.2787C17.0273 10.2787 15.7407 9.83667 14.6893 9.08667V14.5427C14.6893 17.272 12.4753 19.4847 9.74467 19.4847C8.726 19.4847 7.77867 19.1767 6.992 18.6487C7.89 19.566 9.142 20.1353 10.5273 20.1353C13.258 20.1353 15.472 17.9227 15.472 15.1933V9.738ZM16.438 7.04067C15.9013 6.45467 15.5487 5.69667 15.472 4.85867V4.51467H14.73C14.9167 5.57934 15.554 6.48934 16.438 7.04067ZM8.71934 16.5547C8.41934 16.1613 8.25734 15.6807 8.258 15.186C8.258 13.9373 9.27067 12.9253 10.52 12.9253C10.7527 12.9253 10.984 12.9607 11.206 13.0313V10.298C10.9467 10.2627 10.6853 10.2473 10.4233 10.2527V12.38C10.2013 12.3093 9.97 12.274 9.73667 12.274C8.48734 12.274 7.47467 13.286 7.47467 14.5347C7.47534 15.418 7.98134 16.1827 8.71934 16.5547Z" fill="#FF2D56"/>
<path fill-rule="evenodd" clip-rule="evenodd" d="M14.6893 9.08667C15.74 9.83734 17.0273 10.2787 18.4173 10.2787V8.174C17.6413 8.00867 16.9547 7.60334 16.438 7.04C15.554 6.48867 14.9173 5.57934 14.7307 4.51467H12.782V15.1933C12.7773 16.438 11.7667 17.446 10.52 17.446C9.78534 17.446 9.13267 17.096 8.71934 16.554C7.98134 16.182 7.47534 15.4173 7.47534 14.5347C7.47534 13.286 8.488 12.274 9.73734 12.274C9.97667 12.274 10.2073 12.3113 10.424 12.38V10.2533C7.74134 10.3087 5.584 12.4993 5.584 15.194C5.584 16.5393 6.12134 17.7587 6.99334 18.6493C7.78 19.1773 8.72734 19.4853 9.746 19.4853C12.4767 19.4853 14.6907 17.2727 14.6907 14.5433L14.6893 9.08667Z" fill="white"/>
<path fill-rule="evenodd" clip-rule="evenodd" d="M18.4173 8.17467V7.60534C17.7173 7.60667 17.032 7.41067 16.438 7.04C16.9633 7.61533 17.6553 8.012 18.4173 8.17467ZM14.73 4.51467C14.712 4.41267 14.6987 4.31067 14.6893 4.20733V3.86333H11.9987V14.5427C11.9947 15.7873 10.9833 16.7953 9.73667 16.7953C9.37067 16.7953 9.02533 16.7087 8.71933 16.554C9.13267 17.096 9.78533 17.446 10.52 17.446C11.7667 17.446 12.7773 16.438 12.782 15.1933V4.51467H14.73ZM10.4233 10.2533V9.64734C10.1987 9.61667 9.972 9.60134 9.74467 9.60134C7.01333 9.60134 4.8 11.814 4.8 14.5433C4.8 16.2547 5.67 17.7627 6.992 18.6493C6.12 17.7587 5.58267 16.5393 5.58267 15.194C5.58267 12.4993 7.74067 10.3087 10.4233 10.2533Z" fill="#22F1E7"/>
</g>
<defs>
<clipPath id="clip0_23_11">
<rect width="24" height="24" fill="white"/>
</clipPath>
</defs>
</svg>
